<svg width="52" height="50" viewBox="0 0 52 50" fill="none" xmlns="http://www.w3.org/2000/svg">
<path fill-rule="evenodd" clip-rule="evenodd" d="M25.8383 0C11.5701 0 0 11.4756 0 25.6329C0 36.9587 7.40346 46.5665 17.6698 49.9564C18.9607 50.1941 19.4348 49.4003 19.4348 48.7233C19.4348 48.112 19.4108 46.0928 19.3997 43.951C12.2114 45.5015 10.6946 40.9266 10.6946 40.9266C9.51928 37.9638 7.82577 37.176 7.82577 37.176C5.48103 35.5851 8.00248 35.6182 8.00248 35.6182C10.5967 35.7986 11.9633 38.2597 11.9633 38.2597C14.2678 42.1775 18.0078 41.045 19.4823 40.3905C19.7142 38.7338 20.3838 37.6026 21.1227 36.9625C15.3837 36.3152 9.35027 34.1168 9.35027 24.295C9.35027 21.4965 10.3601 19.2098 12.0129 17.4143C11.7442 16.7691 10.8598 14.162 12.2628 10.6313C12.2628 10.6313 14.4321 9.94237 19.3697 13.2588C21.4312 12.6904 23.642 12.4047 25.8383 12.395C28.0333 12.4047 30.2454 12.6895 32.3107 13.2579C37.2424 9.94153 39.4091 10.6304 39.4091 10.6304C40.8155 14.1608 39.9311 16.7683 39.6628 17.4135C41.3195 19.209 42.322 21.4956 42.322 24.2941C42.322 34.1393 36.2775 36.3067 30.5239 36.9417C31.4511 37.7371 32.2769 39.2975 32.2769 41.6885C32.2769 45.1183 32.247 47.8786 32.247 48.7229C32.247 49.405 32.7125 50.2043 34.0218 49.9525C44.2821 46.5593 51.677 36.9544 51.677 25.6329C51.6766 11.4764 40.1078 0.00042444 25.8383 0.00042444V0Z" fill="#595959"/>
<path d="M9.7862 29.8031C9.72929 29.9304 9.52733 29.9686 9.34335 29.8816C9.15509 29.7984 9.05026 29.6248 9.11102 29.497C9.16664 29.3654 9.36902 29.3293 9.556 29.4172C9.74426 29.5008 9.85123 29.6761 9.78577 29.8035L9.7862 29.8031ZM10.8328 30.9614C10.71 31.0748 10.4691 31.0221 10.3056 30.8426C10.1362 30.6643 10.1045 30.4253 10.2299 30.3103C10.3574 30.1974 10.591 30.2509 10.7605 30.4291C10.929 30.61 10.9624 30.8468 10.8332 30.9619L10.8328 30.9614ZM11.852 32.4373C11.6936 32.5468 11.4344 32.4445 11.2743 32.2166C11.116 31.9882 11.116 31.7144 11.2786 31.6054C11.4382 31.4958 11.6936 31.5947 11.8562 31.8206C12.0137 32.0519 12.0137 32.3257 11.852 32.4369V32.4373ZM13.2472 33.864C13.1061 34.0189 12.804 33.9773 12.5832 33.7663C12.3577 33.5596 12.2948 33.2655 12.4364 33.1109C12.5802 32.9556 12.8836 32.9989 13.1056 33.2086C13.3311 33.4149 13.3991 33.7095 13.2481 33.8635L13.2472 33.864ZM15.1727 34.6921C15.1098 34.8929 14.8197 34.9841 14.5266 34.8984C14.2343 34.8105 14.0431 34.5758 14.103 34.3729C14.1629 34.1704 14.4551 34.0758 14.7499 34.167C15.0422 34.2545 15.2334 34.4879 15.1727 34.6921ZM17.2876 34.8453C17.2949 35.0567 17.0467 35.2316 16.74 35.2359C16.4306 35.2431 16.1803 35.0716 16.1773 34.8636C16.1773 34.6501 16.4203 34.4773 16.7293 34.4714C17.036 34.4659 17.2881 34.6356 17.2881 34.8449L17.2876 34.8453ZM19.255 34.5134C19.2918 34.7193 19.0783 34.9311 18.7732 34.9875C18.4737 35.0427 18.1956 34.9145 18.1571 34.7104C18.1203 34.499 18.3376 34.2872 18.6371 34.2324C18.9426 34.1802 19.2165 34.3046 19.255 34.5138V34.5134Z" fill="#595959"/>
</svg>
