<svg width="60" height="50" viewBox="0 0 60 50" fill="none" xmlns="http://www.w3.org/2000/svg">
<g clip-path="url(#clip0)">
<path d="M4.09091 50.0001H13.6364V24.2425L0 12.8789V45.4547C0 47.9698 1.83409 50.0001 4.09091 50.0001Z" fill="#595959"/>
<path d="M46.3636 50.0001H55.9091C58.1727 50.0001 60 47.9622 60 45.4547V12.8789L46.3636 24.2425" fill="#595959"/>
<path d="M46.3636 4.54565V24.2426L60 12.879V6.81838C60 1.19717 54.225 -2.00738 50.1818 1.36384" fill="#595959"/>
<path d="M13.6364 24.2424V4.54541L30 18.1818L46.3636 4.54541V24.2424L30 37.8787" fill="#595959"/>
<path d="M0 6.81838V12.879L13.6364 24.2426V4.54565L9.81818 1.36384C5.76818 -2.00738 0 1.19717 0 6.81838Z" fill="#595959"/>
</g>
<defs>
<clipPath id="clip0">
<rect width="60" height="50" fill="white"/>
</clipPath>
</defs>
</svg>
