<svg width="100" height="100" viewBox="0 0 100 100" fill="none" xmlns="http://www.w3.org/2000/svg">
<path d="M98.7194 34.9502C95.2777 31.8408 90.7156 31.4677 86.8737 33.209C86.3935 26.7413 83.6722 21.1443 80.4707 17.1642L79.19 15.5473L78.0695 17.5373C75.9085 21.393 75.2682 27.8607 75.5883 32.8358C75.8284 36.4428 76.5488 40.1741 77.9895 43.1592C76.8689 44.1542 75.6684 45.5224 74.5478 46.1443C72.3068 47.3881 69.8256 48.6318 67.4244 48.6318H62.0619V31.0945H51.6569V0H39.6511V14.9254H19.6416V31.0945H9.2366V48.5075H0.27231L0.112234 50.3731C-0.287958 58.3333 0.352348 66.0448 2.51338 73.3831L3.3938 76.1194L3.47384 76.3682C9.79686 93.0348 20.8421 100 32.9279 100C56.2991 100 75.5883 83.7065 84.3925 49.5025C90.3154 50 96.3983 47.2637 99.2797 38.4328L100 36.194L98.7194 34.9502V34.9502ZM21.2423 18.6567H29.2462V32.3383H21.2423V18.6567ZM31.7274 73.6318C31.7274 75.7463 30.6068 77.4876 29.2462 77.4876C27.8855 77.4876 26.765 75.7463 26.765 73.6318C26.765 71.5174 27.8855 69.7761 29.2462 69.7761C30.6068 69.9005 31.7274 71.5174 31.7274 73.6318ZM21.2423 34.8259H29.2462V48.5075H21.2423V34.8259ZM10.8374 34.8259H19.6416V48.5075H10.8374V34.8259ZM33.008 97.2637C20.3619 97.1393 13.5587 90.5473 7.95598 81.8408C9.63679 81.9652 11.2376 82.0896 12.6782 82.0896C13.9589 82.0896 15.2395 82.0896 16.44 81.9652C19.5615 81.7164 22.2828 81.0945 24.5239 80.0995C26.3648 86.6915 29.7264 92.7861 35.7293 97.2637H33.008ZM39.6511 48.5075H30.8469V34.8259H39.6511V48.5075ZM39.6511 32.3383H30.8469V18.6567H39.6511V32.3383ZM50.0561 48.5075H41.2519V34.8259H50.0561V48.5075ZM50.0561 32.3383H41.2519V18.6567H50.0561V32.3383ZM50.0561 16.1692H41.2519V2.48756H50.0561V16.1692ZM60.4611 48.5075H51.6569V34.8259H60.4611V48.5075ZM29.8865 71.1443C29.7264 71.0199 29.4863 70.8955 29.2462 70.8955C28.2857 70.8955 27.4853 72.1393 27.4853 73.6318C27.4853 75.1244 28.2857 76.3682 29.2462 76.3682C30.2066 76.3682 31.007 75.1244 31.007 73.6318C31.007 73.2587 30.927 72.8856 30.8469 72.6368C30.6869 73.01 30.5268 73.2587 30.2066 73.2587C29.8064 73.2587 29.4863 72.7612 29.4863 72.1393C29.5663 71.6418 29.7264 71.2687 29.8865 71.1443V71.1443Z" fill="#67DAB8"/>
</svg>
