<svg width="100" height="100" viewBox="0 0 100 100" fill="none" xmlns="http://www.w3.org/2000/svg">
<path d="M100 97.3502C96.3628 98.9443 94.1134 97.4189 92.0954 92.1968C87.5648 80.502 82.5636 69.3431 77.7379 57.9781C77.1157 56.5077 76.4697 55.0647 75.664 53.237C69.9529 66.5122 64.2498 79.1552 58.8977 92.3067C56.9833 97.0066 54.9733 99.0543 51.3999 97.3914L72.8723 47.74L52.8835 2.8984C56.3213 1.74403 58.6983 2.33496 60.804 7.63954C65.4543 19.3481 70.5831 30.4932 75.6959 42.2842C80.8407 30.5344 85.9057 19.3756 90.6916 7.77696C92.6139 3.07705 94.6797 1.29053 98.1335 3.02208C95.5173 9.00004 92.9568 14.8818 90.3805 20.7223C86.9028 28.5968 83.4889 36.5674 79.8835 44.2769C78.5993 47.0254 78.8067 48.8119 79.9553 51.4092C86.6236 66.5122 93.2121 81.7663 100 97.3502ZM0.0239292 46.9154C0.598229 41.9544 0.981096 36.8972 1.77874 32.0324C6.56457 2.58232 26.1865 -9.6622 39.6666 8.58777C47.5632 19.2931 49.5254 34.3823 49.1346 51.3955H4.62631C3.95629 81.9174 16.7105 100.346 32.9664 90.9462C38.6695 87.648 42.0276 79.9523 43.7106 70.3326C44.5641 65.509 45.9759 64.7531 48.6081 66.1274C47.2601 78.1658 44.2052 88.2252 37.824 94.5193C28.2524 103.947 14.5888 100.896 7.40209 87.7992C3.15865 80.1034 1.35599 70.525 0.558347 60.1769C0.438701 58.5278 0.191433 56.9062 0 55.2709C0.0159528 52.4857 0.0239292 49.7006 0.0239292 46.9154V46.9154ZM4.70607 44.8678H44.931C44.6678 22.7975 36.6914 7.11733 25.7877 6.9799C13.8231 6.81499 5.22454 22.1241 4.70607 44.8678V44.8678Z" fill="#4FA696"/>
</svg>
