<svg width="100" height="100" viewBox="0 0 100 100" fill="none" xmlns="http://www.w3.org/2000/svg">
<path d="M1.1001 1.09998H98.9001V98.9008H1.1001V1.09998Z" fill="#67DAB8"/>
<path d="M90.8961 75.5749C90.1797 71.1132 87.2703 67.3656 78.6523 63.871C75.6586 62.4952 72.3211 61.5101 71.3266 59.2413C70.9734 57.921 70.9266 57.1773 71.15 56.3781C71.7914 53.7843 74.8875 52.9757 77.3414 53.7195C78.9219 54.2492 80.418 55.4671 81.3203 57.4101C85.5406 54.6773 85.532 54.6952 88.4789 52.8171C87.4 51.1445 86.8242 50.3726 86.118 49.657C83.5797 46.8218 80.1211 45.3617 74.5898 45.4734L71.7086 45.846C68.9477 46.5437 66.3164 47.9929 64.7734 49.9359C60.1437 55.189 61.4641 64.3827 67.0977 68.1663C72.6477 72.332 80.8008 73.2796 81.8422 77.1749C82.8555 81.9437 78.3375 83.4874 73.8469 82.939C70.5375 82.2507 68.6969 80.5687 66.707 77.5101C63.0445 79.6296 63.0445 79.6296 59.2789 81.7953C60.1719 83.7476 61.1102 84.6312 62.607 86.3226C69.6914 93.5085 87.4195 93.1554 90.5992 82.2788C90.7281 81.9054 91.5844 79.4148 90.8961 75.5749V75.5749ZM54.2672 46.0492H45.1195L45.082 69.6992C45.082 74.7288 45.3422 79.3398 44.5242 80.7531C43.1859 83.5328 39.718 83.1882 38.1375 82.6492C36.5289 81.8585 35.7109 80.7343 34.7633 79.1453C34.5031 78.689 34.3078 78.3359 34.2422 78.3085L26.8047 82.8632C28.0414 85.4015 29.8633 87.6046 32.1969 89.0359C35.6828 91.1281 40.368 91.7695 45.268 90.6445C48.457 89.7156 51.2086 87.7913 52.6492 84.8624C54.732 81.0226 54.2852 76.3749 54.2664 71.2343C54.3133 62.8476 54.2672 54.4624 54.2672 46.0492V46.0492Z" fill="white"/>
</svg>
