<svg width="150" height="150" viewBox="0 0 150 150" fill="none" xmlns="http://www.w3.org/2000/svg">
<g clip-path="url(#clip0)">
<path d="M74.3302 0.986816C54.5446 1.29678 35.6848 9.31059 21.8601 23.2822C8.0354 37.2539 0.366064 56.0509 0.523117 75.5781C0.680171 95.1052 8.65089 113.78 22.6986 127.534C36.7463 141.286 55.7326 149.004 75.5207 149.004C95.3088 149.004 114.295 141.286 128.343 127.534C142.391 113.78 150.361 95.1052 150.518 75.5781C150.675 56.0509 143.006 37.2539 129.181 23.2822C115.357 9.31059 96.4968 1.29678 76.7112 0.986816H74.3302ZM74.3302 17.4342C58.9656 17.7437 44.3454 24.0241 33.6463 34.9107C22.9472 45.7972 17.0336 60.4106 17.1904 75.5754C17.3472 90.7403 23.5618 105.232 34.4838 115.901C45.4058 126.569 60.1529 132.554 75.5207 132.554C90.8886 132.554 105.636 126.569 116.558 115.901C127.48 105.232 133.694 90.7403 133.851 75.5754C134.008 60.4106 128.094 45.7972 117.395 34.9107C106.696 24.0241 92.0758 17.7437 76.7112 17.4342H74.3302ZM74.3302 33.8815C63.3871 34.1902 53.0068 38.7366 45.4333 46.5379C37.8599 54.3391 33.7019 64.7682 33.8583 75.5707C34.0147 86.3731 38.4729 96.6808 46.2692 104.265C54.0654 111.85 64.5731 116.102 75.5207 116.102C86.4683 116.102 96.976 111.85 104.772 104.265C112.569 96.6808 117.027 86.3731 117.183 75.5707C117.34 64.7682 113.182 54.3391 105.608 46.5379C98.0347 38.7366 87.6543 34.1902 76.7112 33.8815H74.3302ZM74.3302 50.3289C67.8103 50.6356 61.6706 53.4467 57.2229 58.1612C52.7752 62.8757 50.3723 69.12 50.5278 75.5595C50.6833 81.9992 53.3847 88.1234 58.0548 92.6236C62.725 97.1238 68.9934 99.6434 75.5207 99.6434C82.048 99.6434 88.3165 97.1238 92.9866 92.6236C97.6567 88.1234 100.358 81.9992 100.514 75.5595C100.669 69.12 98.2662 62.8757 93.8185 58.1612C89.3709 53.4467 83.2311 50.6356 76.7112 50.3289H74.3302ZM74.3302 66.7763C72.245 67.0733 70.3512 68.1388 69.0299 69.7582C67.7086 71.3776 67.0579 73.4308 67.2088 75.5045C67.3596 77.5783 68.3009 79.5187 69.8431 80.9352C71.3852 82.3518 73.4139 83.1394 75.5207 83.1394C77.6275 83.1394 79.6562 82.3518 81.1984 80.9352C82.7405 79.5187 83.6818 77.5783 83.8326 75.5045C83.9835 73.4308 83.3328 71.3776 82.0115 69.7582C80.6902 68.1388 78.7964 67.0733 76.7112 66.7763H74.3302ZM150.521 75H0.520755H150.521ZM129.092 22.1335L21.9493 127.866L129.092 22.1335ZM129.092 127.866L21.9493 22.1335L129.092 127.866ZM75.5207 0.986816V149.013V0.986816Z" fill="#67DAB8" fill-opacity="0.8"/>
<path d="M75.5207 0.986816V149.013V0.986816ZM74.3302 0.986816C54.5446 1.29678 35.6848 9.31059 21.8601 23.2822C8.0354 37.2539 0.366064 56.0509 0.523117 75.5781C0.680171 95.1052 8.65089 113.78 22.6986 127.534C36.7463 141.286 55.7326 149.004 75.5207 149.004C95.3088 149.004 114.295 141.286 128.343 127.534C142.391 113.78 150.361 95.1052 150.518 75.5781C150.675 56.0509 143.006 37.2539 129.181 23.2822C115.357 9.31059 96.4968 1.29678 76.7112 0.986816H74.3302ZM74.3302 17.4342C58.9656 17.7437 44.3454 24.0241 33.6463 34.9107C22.9472 45.7972 17.0336 60.4106 17.1904 75.5754C17.3472 90.7403 23.5618 105.232 34.4838 115.901C45.4058 126.569 60.1529 132.554 75.5207 132.554C90.8886 132.554 105.636 126.569 116.558 115.901C127.48 105.232 133.694 90.7403 133.851 75.5754C134.008 60.4106 128.094 45.7972 117.395 34.9107C106.696 24.0241 92.0758 17.7437 76.7112 17.4342H74.3302ZM74.3302 33.8815C63.3871 34.1902 53.0068 38.7366 45.4333 46.5379C37.8599 54.3391 33.7019 64.7682 33.8583 75.5707C34.0147 86.3731 38.4729 96.6808 46.2692 104.265C54.0654 111.85 64.5731 116.102 75.5207 116.102C86.4683 116.102 96.976 111.85 104.772 104.265C112.569 96.6808 117.027 86.3731 117.183 75.5707C117.34 64.7682 113.182 54.3391 105.608 46.5379C98.0347 38.7366 87.6543 34.1902 76.7112 33.8815H74.3302ZM74.3302 50.3289C67.8103 50.6356 61.6706 53.4467 57.2229 58.1612C52.7752 62.8757 50.3723 69.12 50.5278 75.5595C50.6833 81.9992 53.3847 88.1234 58.0548 92.6236C62.725 97.1238 68.9934 99.6434 75.5207 99.6434C82.048 99.6434 88.3165 97.1238 92.9866 92.6236C97.6567 88.1234 100.358 81.9992 100.514 75.5595C100.669 69.12 98.2662 62.8757 93.8185 58.1612C89.3709 53.4467 83.2311 50.6356 76.7112 50.3289H74.3302ZM74.3302 66.7763C72.245 67.0733 70.3512 68.1388 69.0299 69.7582C67.7086 71.3776 67.0579 73.4308 67.2088 75.5045C67.3596 77.5783 68.3009 79.5187 69.8431 80.9352C71.3852 82.3518 73.4139 83.1394 75.5207 83.1394C77.6275 83.1394 79.6562 82.3518 81.1984 80.9352C82.7405 79.5187 83.6818 77.5783 83.8326 75.5045C83.9835 73.4308 83.3328 71.3776 82.0115 69.7582C80.6902 68.1388 78.7964 67.0733 76.7112 66.7763H74.3302ZM150.521 75H0.520755H150.521ZM129.092 22.1335L21.9493 127.866L129.092 22.1335ZM129.092 127.866L21.9493 22.1335L129.092 127.866Z" stroke="#777777"/>
<path d="M58.8542 9.21051L35.0447 20.9586L115.997 129.041L127.902 117.293L75.5209 75L58.8542 9.21051Z" fill="#FF6600" fill-opacity="0.8" stroke="#777777"/>
<path d="M19.5684 58.5526V91.4474L75.5208 75L19.5684 58.5526Z" fill="#FFCC00" fill-opacity="0.8" stroke="#777777"/>
<path d="M75.5208 75L82.6636 116.119H68.3779L75.5208 75Z" fill="#77FF77" fill-opacity="0.8" stroke="#777777"/>
<path d="M75.5208 75L90.997 28.0076L101.711 33.8815L75.5208 75Z" fill="#CCFF33" fill-opacity="0.8" stroke="#777777"/>
<path d="M75.5208 75L92.1875 67.9511L93.3779 72.6505L75.5208 75ZM75.5208 75L44.5684 90.2726L48.1398 94.9718L75.5208 75Z" fill="#0044FF" fill-opacity="0.8" stroke="#777777"/>
</g>
<defs>
<clipPath id="clip0">
<rect width="150" height="150" fill="white"/>
</clipPath>
</defs>
</svg>
