<svg width="100" height="100" viewBox="0 0 100 100" fill="none" xmlns="http://www.w3.org/2000/svg">
<path d="M96.0477 22.1578L54.8355 0.982476C52.2365 -0.327492 48.8523 -0.327492 46.2327 0.982476L4.58037 22.1578C1.89813 23.5232 0 26.0894 0 28.8342V71.1286C0 73.8734 1.94766 76.4404 4.62991 77.8133L15.6346 83.3442C20.8944 85.6367 22.7533 85.6367 25.1467 85.6367C32.9346 85.6367 37.3832 81.4694 37.3832 74.2009V32.4457C37.3832 31.856 37.0364 30.9786 36.3822 30.9786H31.1271C30.4617 30.9786 28.972 31.856 28.972 32.4449V74.2001C28.972 77.4221 25.6785 80.6284 19.5234 77.905L8.15234 72.1053C7.75607 71.9151 7.47664 71.5322 7.47664 71.1286V28.8342C7.47664 28.4356 7.99533 28.0353 8.39439 27.831L49.9121 6.69208C50.3 6.49774 50.8701 6.49774 51.257 6.69208L92.2682 27.8261C92.6607 28.0353 92.5224 28.4232 92.5224 28.8342V71.1286C92.5224 71.5322 92.6935 71.925 92.3056 72.1194L51.1037 93.2707C50.7505 93.4584 50.3121 93.4584 49.9252 93.2707L39.3579 87.6893C39.0393 87.5255 38.6607 87.4668 38.3551 87.6182C35.415 89.0927 34.8729 89.2887 32.115 90.1347C31.4364 90.3439 30.4355 90.707 32.4981 91.73L46.328 98.9696C47.6484 99.6444 49.1463 99.9998 50.671 100C52.2056 100 53.7084 99.6477 55.0327 98.9696L96.0467 77.8133C98.729 76.4305 100 73.8734 100 71.1286V28.8342C100 26.0894 98.729 23.5298 96.0477 22.1578V22.1578ZM63.4673 64.4266C52.5084 64.4266 50.0944 61.7513 49.2897 56.929C49.1963 56.4097 48.6981 55.7886 48.1009 55.7886H42.7449C42.0822 55.7886 41.5495 56.4998 41.5495 57.0837C41.5495 63.2581 45.343 70.7391 63.4682 70.7391C76.5888 70.7391 84.1112 66.2278 84.1112 58.244C84.1112 50.3279 78.0673 48.2505 65.343 46.7602C52.4813 45.2559 51.1748 44.4959 51.1748 41.8297C51.1748 39.6315 52.2813 36.6998 61.8047 36.6998C70.314 36.6998 73.4505 38.3157 74.7411 43.391C74.8514 43.8682 75.3439 44.2106 75.9 44.2106H81.2776C81.6084 44.2106 81.9243 44.0923 82.1561 43.8831C82.3804 43.6582 82.4991 43.3761 82.4692 43.0735C81.6364 34.3337 75.0748 30.2608 61.8037 30.2608C49.9991 30.2608 42.957 34.672 42.957 42.0662C42.957 50.0864 49.9635 52.3028 61.2953 53.2944C74.8514 54.4703 75.9056 56.2236 75.9056 58.583C75.9056 62.6808 72.1879 64.4266 63.4673 64.4266Z" fill="#67DAB8"/>
</svg>
