<svg width="200" height="100" viewBox="0 0 200 100" fill="none" xmlns="http://www.w3.org/2000/svg">
<path d="M80.5358 33.1863C80.7123 33.2178 80.8845 33.286 81.047 33.3888C81.206 33.4965 81.3528 33.6375 81.4825 33.8072C81.6501 34.0355 81.8071 34.2789 81.9526 34.5361L95.0508 58.1436C94.9971 57.3922 94.9624 56.6544 94.9372 55.948C94.9119 55.2416 94.8993 54.5667 94.8993 53.9368V33.1099H100.538V72.4242H97.2059C96.7791 72.4416 96.3545 72.3312 95.9595 72.1002C95.5683 71.8248 95.2303 71.417 94.975 70.9124L81.9715 47.5164C82.0126 48.1958 82.041 48.8662 82.0662 49.5231C82.0914 50.18 82.1072 50.7964 82.1072 51.3723V72.4467H76.4653V33.1099H79.8322C80.0676 33.1136 80.3027 33.1391 80.5358 33.1863V33.1863Z" fill="#67DAB8"/>
<path d="M109.809 44.4346V62.1885C109.809 63.5743 110.029 64.6451 110.471 65.401C110.715 65.7886 111.017 66.0921 111.355 66.2885C111.692 66.4849 112.057 66.5692 112.421 66.5348C113.046 66.5407 113.664 66.347 114.229 65.9679C114.827 65.5549 115.379 65.0182 115.867 64.3752V44.4346H121.733V72.4153H118.101C117.784 72.4528 117.468 72.3338 117.205 72.0782C116.943 71.8226 116.75 71.446 116.659 71.0115L116.302 69.3918C115.933 69.9018 115.541 70.3767 115.129 70.8136C114.723 71.2341 114.289 71.5944 113.832 71.8889C113.35 72.1981 112.848 72.4363 112.333 72.5998C111.762 72.7768 111.179 72.8628 110.594 72.8562C109.619 72.8816 108.651 72.6101 107.754 72.0599C106.949 71.5512 106.234 70.7917 105.662 69.8372C105.081 68.8452 104.643 67.6982 104.375 66.4628C104.076 65.0818 103.929 63.6429 103.94 62.1975V44.4346H109.809Z" fill="#67DAB8"/>
<path d="M125.516 72.4243V44.4345H129.151C129.475 44.4178 129.795 44.5401 130.07 44.7855C130.324 45.0389 130.508 45.4114 130.59 45.8383L130.906 47.35C131.224 46.8684 131.565 46.4175 131.925 46.0003C132.28 45.5937 132.664 45.2409 133.07 44.9475C133.964 44.3004 134.955 43.9715 135.958 43.9891C137.015 43.9303 138.055 44.3927 138.902 45.2984C139.699 46.2157 140.309 47.4215 140.669 48.7898C140.98 47.9614 141.386 47.2132 141.871 46.5762C142.329 45.98 142.846 45.4815 143.404 45.0959C143.958 44.7162 144.542 44.4352 145.143 44.2591C145.745 44.0805 146.358 43.9901 146.973 43.9891C147.992 43.9641 149.005 44.2066 149.961 44.7045C150.794 45.1448 151.543 45.8567 152.148 46.7831C152.756 47.7498 153.211 48.8914 153.483 50.1306C153.8 51.5866 153.954 53.1052 153.937 54.6298V72.4108H148.068V54.6433C148.068 51.7458 147.198 50.2985 145.459 50.3015C145.093 50.2848 144.728 50.3756 144.388 50.5683C144.047 50.7611 143.738 51.0516 143.48 51.4219C142.956 52.1627 142.694 53.2365 142.694 54.6433V72.4243H136.835V54.6433C136.835 53.0416 136.614 51.9168 136.172 51.2689C135.73 50.621 135.08 50.3015 134.222 50.3015C133.699 50.2998 133.184 50.474 132.717 50.81C132.227 51.1724 131.777 51.6364 131.382 52.1867V72.4333L125.516 72.4243Z" fill="#67DAB8"/>
<path d="M163.744 59.282V72.4242H157.348V33.1099H167.073C168.768 33.0562 170.458 33.3857 172.081 34.0862C173.346 34.6389 174.518 35.5579 175.523 36.7858C176.408 37.8972 177.093 39.2951 177.521 40.8621C177.953 42.4807 178.167 44.201 178.152 45.9327C178.167 47.7754 177.942 49.606 177.489 51.3318C177.059 52.9457 176.364 54.3895 175.463 55.5431C174.46 56.7909 173.284 57.723 172.011 58.2786C170.413 58.9851 168.746 59.3238 167.073 59.282H163.744ZM163.744 52.4026H167.073C168.739 52.4026 169.938 51.8402 170.67 50.7019C171.402 49.5636 171.768 48.0024 171.768 45.9552C171.776 45.1189 171.68 44.2873 171.484 43.4986C171.303 42.7786 171.008 42.1275 170.623 41.5955C170.206 41.0393 169.708 40.6201 169.165 40.3672C168.49 40.0562 167.783 39.9042 167.073 39.9172H163.744V52.4026Z" fill="#67DAB8"/>
<path d="M189.518 79.686C189.384 80.1642 189.167 80.5855 188.887 80.9098C188.52 81.2125 188.097 81.349 187.675 81.3012H183.273L187.06 69.9721L179.228 44.4345H184.412C184.791 44.4068 185.166 44.5657 185.472 44.8844C185.713 45.149 185.896 45.5044 186.002 45.9102L189.218 57.9727C189.515 59.0597 189.762 60.1734 189.956 61.3066C190.082 60.7307 190.221 60.1638 190.373 59.6104C190.524 59.057 190.669 58.4856 190.808 57.9097L193.724 45.9012C193.834 45.4681 194.044 45.1015 194.32 44.8619C194.6 44.5918 194.929 44.4461 195.267 44.4435H200L189.518 79.686Z" fill="#67DAB8"/>
<path d="M27.8876 20.3185L16.1715 11.887L3.31006 21.0384L15.3448 29.6544L27.8876 20.3185Z" fill="#67DAB8"/>
<path d="M33.2615 24.1833L45.5455 33.0288L32.8008 42.1533L20.7471 33.5238L33.2615 24.1833Z" fill="#67DAB8"/>
<path d="M49.6696 12.0129L62.2913 21.0384L51.0012 29.119L38.6919 20.2645L49.6696 12.0129Z" fill="#67DAB8"/>
<path d="M44.2358 8.12562L32.8731 0L21.6335 7.99964L33.3433 16.4177L44.2358 8.12562Z" fill="#67DAB8"/>
<path d="M35.3533 77.8907V100L49.1172 90.2052L49.1046 68.0869L35.3533 77.8907Z" fill="#67DAB8"/>
<path d="M49.0983 60.3662L49.0825 38.4819L35.3533 48.2138V70.1071L49.0983 60.3662Z" fill="#67DAB8"/>
<path d="M65.6233 56.2673V78.4621L53.882 86.8126L53.8726 64.7214L65.6233 56.2673Z" fill="#67DAB8"/>
<path d="M65.6233 48.5064V26.7571L53.8599 35.0942L53.8693 57.0234L65.6233 48.5064Z" fill="#67DAB8"/>
<path d="M30.494 48.2138L21.2234 41.5639V70.287C21.2234 70.287 9.88277 35.8859 8.83517 32.7949C8.69949 32.3945 8.14414 31.9581 8.00214 31.8501C5.95743 30.3293 0 26.0281 0 26.0281V76.7929L8.24196 83.0919V56.5464C8.24196 56.5464 19.4595 87.2852 19.5762 87.6226C19.693 87.96 20.8131 91.195 22.0185 92.3333C23.6183 93.8495 30.4877 99.739 30.4877 99.739L30.494 48.2138Z" fill="#67DAB8"/>
</svg>
