<svg width="100" height="100" viewBox="0 0 100 100" fill="none" xmlns="http://www.w3.org/2000/svg">
<path d="M49.4039 0.000699106C45.28 0.0182791 41.3436 0.333839 37.878 0.88585C27.6707 2.50848 25.8188 5.90493 25.8188 12.1696V20.4418H49.9382V23.1992H16.766C9.7567 23.1992 3.61866 26.9903 1.69832 34.2052C-0.517004 42.4721 -0.614682 47.6319 1.69832 56.2645C3.41256 62.6909 7.50719 67.2687 14.5175 67.2687H22.8113V57.3518C22.8113 50.1871 29.6985 43.868 37.879 43.868H61.9711C68.6776 43.868 74.0304 38.8981 74.0304 32.8383V12.1704C74.0304 6.2873 68.5155 1.86857 61.9711 0.886729C57.8257 0.266157 53.5269 -0.0160019 49.4039 0.000699106V0.000699106ZM36.3601 6.65384C38.8509 6.65384 40.8865 8.51468 40.8865 10.8036C40.8865 13.0828 38.8519 14.9261 36.3601 14.9261C33.8596 14.9261 31.8347 13.0828 31.8347 10.8036C31.8337 8.51468 33.8596 6.65384 36.3601 6.65384V6.65384Z" fill="url(#paint0_linear)"/>
<path d="M77.0379 23.1993V32.8384C77.0379 40.3099 69.9973 46.5991 61.9702 46.5991H37.8781C31.279 46.5991 25.8188 51.6824 25.8188 57.6297V78.2993C25.8188 84.1807 31.5017 87.6413 37.8781 89.3281C45.5126 91.3472 52.8345 91.7128 61.9702 89.3281C68.0418 87.745 74.0295 84.5613 74.0295 78.2993V70.0262H49.9383V67.2679H86.0907C93.1 67.2679 95.7138 62.8685 98.1519 56.2637C100.67 49.4647 100.562 42.9258 98.1519 34.2044C96.4191 27.9239 93.1107 23.1984 86.0907 23.1984H77.0379V23.1993ZM63.4871 75.541C65.9887 75.541 68.0135 77.3843 68.0135 79.6653C68.0135 81.9524 65.9877 83.8133 63.4871 83.8133C60.9964 83.8133 58.9618 81.9524 58.9618 79.6653C58.9618 77.3843 60.9964 75.541 63.4871 75.541V75.541Z" fill="url(#paint1_linear)"/>
<path opacity="0.444" d="M82.5342 94.3604C82.5342 97.4747 68.0624 100 50.2118 100C32.3603 100 17.8884 97.4747 17.8884 94.3604C17.8884 91.2452 32.3593 88.7198 50.2118 88.7198C68.0624 88.7198 82.5342 91.2443 82.5342 94.3604Z" fill="url(#paint2_radial)"/>
<defs>
<linearGradient id="paint0_linear" x1="-2.41793" y1="2.58727" x2="48.2072" y2="50.5624" gradientUnits="userSpaceOnUse">
<stop stop-color="#67DAB8"/>
<stop offset="1" stop-color="#606060"/>
</linearGradient>
<linearGradient id="paint1_linear" x1="74.1436" y1="71.8188" x2="56.8809" y2="44.9178" gradientUnits="userSpaceOnUse">
<stop stop-color="#67DAB8"/>
<stop offset="1" stop-color="#E4E4E4"/>
</linearGradient>
<radialGradient id="paint2_radial" cx="0" cy="0" r="1" gradientUnits="userSpaceOnUse" gradientTransform="translate(50.0812 94.1989) rotate(-90) scale(5.6417 27.5586)">
<stop stop-color="#B8B8B8" stop-opacity="0.498"/>
<stop offset="1" stop-color="#7F7F7F" stop-opacity="0"/>
</radialGradient>
</defs>
</svg>
