<svg width="200" height="130" viewBox="0 0 200 130" fill="none" xmlns="http://www.w3.org/2000/svg">
<g clip-path="url(#clip0)">
<path d="M153.405 89.5209C177.831 73.6449 181.891 50.5442 162.472 37.9229C143.056 25.303 107.518 27.9413 83.0935 43.8163C58.6689 59.6918 65.7344 90.0225 74.0281 95.4143C80.7302 99.7706 128.982 105.396 153.405 89.5209Z" fill="#32FFBB"/>
<path d="M53.1813 66.5804C39.0113 57.37 18.3896 55.8366 7.12096 63.1607C-4.14477 70.4839 -1.78936 83.8899 12.3835 93.099C26.5563 102.312 53.632 99.6473 58.4409 96.5187C62.3325 93.9934 67.3556 75.7918 53.1813 66.5804Z" fill="#02FFAB"/>
<path d="M102.073 85.6296C99.5698 87.1273 97.3737 88.2327 95.4864 88.9429C93.599 89.6554 91.7989 90.0112 90.0861 90.0112C88.1158 90.0112 86.5263 89.5148 85.3212 88.5214C84.1139 87.5272 83.5125 86.194 83.5125 84.5167C83.5125 82.0036 84.3505 78.9866 86.0265 75.4689C87.6997 71.9484 89.7371 68.7045 92.13 65.7367L99.1464 64.0481C99.3664 64.0003 99.5337 63.976 99.6448 63.976C100.177 63.976 100.617 64.231 100.954 64.7386C101.296 65.2487 101.467 65.934 101.467 66.7956C101.467 69.2375 100.603 71.6015 98.8695 73.8877C97.1372 76.1749 94.4313 78.6158 90.7489 81.2132C90.601 82.4583 90.5275 83.3134 90.5275 83.7807C90.5275 84.8228 90.8217 85.6474 91.4109 86.2582C92.0009 86.8699 92.7826 87.1737 93.7591 87.1737C94.7551 87.1737 95.8131 86.9421 96.9367 86.4752C98.0582 86.0074 99.771 85.0389 102.072 83.5656V85.6296H102.073ZM91.4946 78.6106C93.8327 76.9207 95.7316 75.0254 97.1855 72.9286C98.6394 70.8308 99.3657 69.0265 99.3657 67.5147C99.3657 67.0741 99.2654 66.7159 99.0642 66.4469C98.8616 66.1773 98.6019 66.0418 98.2897 66.0418C97.611 66.0418 96.6194 67.1444 95.3205 69.35C94.0216 71.5551 92.7466 74.6424 91.4946 78.6106V78.6106Z" fill="#000201"/>
<path d="M122.737 85.6296C120.399 87.1273 118.3 88.2327 116.439 88.9429C114.578 89.6554 112.527 90.0112 110.279 90.0112C107.775 90.0112 105.754 89.4904 104.214 88.4502C102.677 87.4072 101.91 86.0379 101.91 84.3376C101.91 81.8006 103.262 79.505 105.973 77.4523C108.677 75.3986 111.68 74.3724 114.976 74.3724C116.689 74.3724 118.059 74.6607 119.092 75.235C120.123 75.8102 120.639 76.5635 120.639 77.4973C120.639 79.9757 116.588 81.9853 108.485 83.5299C109.221 85.863 111.145 87.0312 114.258 87.0312C115.473 87.0312 116.632 86.8189 117.737 86.3951C118.844 85.9694 120.509 85.0253 122.737 83.566V85.6296H122.737ZM108.262 82.3088C112.975 81.4462 115.334 79.8552 115.334 77.5329C115.334 76.3839 114.688 75.8097 113.401 75.8097C112.185 75.8097 111.026 76.4102 109.922 77.6145C108.814 78.8169 108.262 80.3807 108.262 82.3088V82.3088Z" fill="#000201"/>
<path d="M152.238 85.6295C149.291 87.4489 147.182 88.6353 145.913 89.1866C144.642 89.737 143.427 90.0116 142.266 90.0116C139.356 90.0116 137.985 88.3423 138.15 85.0023C136.309 86.7134 134.609 87.9762 133.052 88.7919C131.498 89.6057 129.891 90.0116 128.232 90.0116C126.614 90.0116 125.238 89.519 124.103 88.5313C122.969 87.5435 122.406 86.3322 122.406 84.8945C122.406 83.1 123.163 81.3881 124.682 79.7591C126.203 78.131 128.15 76.8157 130.525 75.8101C132.9 74.8046 135.001 74.3011 136.822 74.3011C139.125 74.3011 140.737 74.9898 141.658 76.3656L147.303 74.3377H148.852L146.414 79.5978C145.162 82.2441 144.534 84.0577 144.534 85.0389C144.534 86.0678 145.094 86.5826 146.219 86.5826C146.934 86.5826 147.726 86.3346 148.592 85.8372C149.458 85.3398 150.671 84.5828 152.236 83.5655V85.6295H152.238ZM132.018 86.6182C133.859 86.6182 135.594 85.5981 137.227 83.5576C138.857 81.5161 139.671 79.6325 139.671 77.9093C139.671 77.2399 139.439 76.7153 138.981 76.3389C138.518 75.9606 137.902 75.7731 137.13 75.7731C135.287 75.7731 133.541 76.7903 131.896 78.8257C130.248 80.8612 129.422 82.7344 129.422 84.4445C129.422 85.0919 129.667 85.6155 130.155 86.0167C130.642 86.418 131.261 86.6182 132.018 86.6182V86.6182Z" fill="#000201"/>
<path d="M172.873 85.6296C168.25 88.5739 164.686 90.0473 162.182 90.0473C161.058 90.0473 160.109 89.7389 159.337 89.1243C158.565 88.5074 158.177 87.7437 158.177 86.8334C158.177 85.1458 159.568 82.8844 162.349 80.0469C160.985 80.5021 159.495 80.8181 157.874 80.9981C156.676 82.4344 154.797 83.979 152.238 85.6291H151.604V84.0151C153.04 83.0457 154.338 82.0036 155.499 80.8903C153.913 80.4351 153.122 79.7586 153.122 78.8624C153.122 77.9393 153.604 76.9554 154.574 75.9067C155.54 74.8604 156.87 74.3373 158.565 74.3373C160.002 74.3373 160.719 74.8145 160.719 75.7727C160.719 76.5269 160.305 77.6037 159.475 79.0049C162.531 78.7888 165.202 77.2699 167.486 74.4442L169.999 74.372L167.43 78.9683C166.363 80.9076 165.672 82.2286 165.36 82.928C165.047 83.6274 164.889 84.2481 164.889 84.7858C164.889 85.2893 165.07 85.6915 165.427 85.9887C165.787 86.2901 166.271 86.4382 166.878 86.4382C167.541 86.4382 168.177 86.291 168.785 85.9994C169.392 85.7036 170.755 84.8936 172.874 83.5651V85.6296H172.873Z" fill="#000201"/>
<path d="M200 85.6296C195.746 88.5519 192.098 90.0117 189.061 90.0117C187.827 90.0117 186.832 89.7304 186.077 89.1674C185.321 88.6053 184.944 87.8516 184.944 86.906C184.944 85.6253 185.755 83.6678 187.376 81.0356C188.241 79.6227 188.675 78.7236 188.675 78.342C188.675 77.9586 188.443 77.7668 187.985 77.7668C187.727 77.7668 187.385 77.8512 186.962 78.0176C186.573 78.185 186.123 78.4203 185.607 78.7189C185.148 78.9936 184.631 79.3288 184.06 79.7226C183.562 80.0605 183.027 80.443 182.46 80.8724L180.911 82.0406C180.231 82.5788 179.807 83.1465 179.641 83.7456C179.364 84.7628 179.181 85.6975 179.088 86.5484C179.031 87.1812 179.005 88.0363 179.005 89.1158L172.9 90.0478C172.698 88.4319 172.595 87.2286 172.595 86.4396C172.595 84.5125 172.941 82.6866 173.632 80.9634C174.323 79.2383 175.431 77.3004 176.961 75.145L183.7 74.3016C182.282 76.78 181.353 78.7302 180.911 80.1538C183.931 77.9637 186.325 76.4477 188.1 75.6025C189.872 74.7582 191.45 74.3382 192.829 74.3382C193.766 74.3382 194.549 74.5679 195.173 75.0278C195.8 75.4881 196.111 76.0661 196.111 76.7571C196.111 77.9051 195.319 79.7966 193.738 82.4311C192.65 84.2378 192.106 85.4102 192.106 85.9516C192.106 86.6721 192.559 87.0321 193.463 87.0321C194.809 87.0321 196.99 85.8766 200 83.5665V85.6296Z" fill="#000201"/>
<path d="M119.594 76.1812C119.594 75.5961 119.372 75.1435 118.927 74.8236C118.49 74.4959 117.722 74.215 116.621 73.981C115.529 73.7469 114.659 73.466 114.012 73.1383C113.372 72.8106 112.896 72.4205 112.584 71.9679C112.279 71.5154 112.127 70.977 112.127 70.3529C112.127 69.3151 112.564 68.4374 113.438 67.7195C114.32 67.0017 115.443 66.6428 116.809 66.6428C118.244 66.6428 119.407 67.0134 120.296 67.7547C121.194 68.4959 121.642 69.4439 121.642 70.5986H119.465C119.465 70.0056 119.212 69.4946 118.705 69.0655C118.205 68.6363 117.573 68.4218 116.809 68.4218C116.021 68.4218 115.404 68.5934 114.96 68.9367C114.515 69.28 114.292 69.7287 114.292 70.2826C114.292 70.8054 114.499 71.1994 114.913 71.4647C115.326 71.73 116.071 71.9835 117.148 72.2254C118.233 72.4673 119.11 72.756 119.781 73.0915C120.452 73.427 120.948 73.8327 121.268 74.3087C121.595 74.7768 121.759 75.3503 121.759 76.0291C121.759 77.1604 121.307 78.0694 120.402 78.756C119.497 79.4348 118.322 79.7742 116.879 79.7742C115.865 79.7742 114.967 79.5948 114.187 79.2359C113.407 78.877 112.794 78.3776 112.35 77.7378C111.913 77.0902 111.694 76.3919 111.694 75.6429H113.859C113.898 76.3685 114.187 76.9459 114.725 77.375C115.272 77.7963 115.989 78.007 116.879 78.007C117.698 78.007 118.354 77.8431 118.845 77.5154C119.344 77.1799 119.594 76.7352 119.594 76.1812ZM129.659 78.007C130.432 78.007 131.107 77.7729 131.684 77.3048C132.261 76.8366 132.581 76.2515 132.644 75.5492H134.692C134.653 76.2749 134.403 76.9654 133.943 77.6208C133.482 78.2762 132.866 78.7989 132.094 79.1891C131.329 79.5792 130.517 79.7742 129.659 79.7742C127.935 79.7742 126.562 79.2008 125.54 78.0538C124.525 76.8991 124.018 75.323 124.018 73.3256V72.9627C124.018 71.73 124.244 70.6337 124.697 69.674C125.149 68.7143 125.797 67.9692 126.64 67.4387C127.49 66.9081 128.493 66.6428 129.648 66.6428C131.068 66.6428 132.246 67.068 133.182 67.9185C134.126 68.769 134.629 69.873 134.692 71.2306H132.644C132.581 70.4114 132.269 69.7404 131.707 69.2176C131.153 68.687 130.467 68.4218 129.648 68.4218C128.547 68.4218 127.693 68.8197 127.084 69.6155C126.484 70.4036 126.183 71.5466 126.183 73.0447V73.4543C126.183 74.9133 126.484 76.0369 127.084 76.8249C127.685 77.613 128.543 78.007 129.659 78.007ZM139.479 79.5402H137.313V66.8769H139.479V79.5402ZM137.138 63.518C137.138 63.1669 137.243 62.8704 137.454 62.6285C137.672 62.3866 137.992 62.2657 138.414 62.2657C138.835 62.2657 139.155 62.3866 139.373 62.6285C139.592 62.8704 139.701 63.1669 139.701 63.518C139.701 63.8691 139.592 64.1617 139.373 64.3957C139.155 64.6298 138.835 64.7468 138.414 64.7468C137.992 64.7468 137.672 64.6298 137.454 64.3957C137.243 64.1617 137.138 63.8691 137.138 63.518ZM115.755 101.677L114.398 103.093V107.54H112.233V89.5635H114.398V100.436L115.556 99.0434L119.501 94.8769H122.134L117.207 100.167L122.707 107.54H120.168L115.755 101.677ZM126.722 107.54H124.556V94.8769H126.722V107.54ZM124.381 91.518C124.381 91.1669 124.486 90.8704 124.697 90.6285C124.915 90.3866 125.235 90.2657 125.657 90.2657C126.078 90.2657 126.398 90.3866 126.616 90.6285C126.835 90.8704 126.944 91.1669 126.944 91.518C126.944 91.8691 126.835 92.1617 126.616 92.3957C126.398 92.6298 126.078 92.7468 125.657 92.7468C125.235 92.7468 124.915 92.6298 124.697 92.3957C124.486 92.1617 124.381 91.8691 124.381 91.518ZM133.135 91.8106V94.8769H135.499V96.5505H133.135V104.404C133.135 104.911 133.241 105.293 133.451 105.551C133.662 105.8 134.021 105.925 134.528 105.925C134.778 105.925 135.121 105.878 135.558 105.785V107.54C134.988 107.696 134.434 107.774 133.896 107.774C132.928 107.774 132.199 107.482 131.707 106.896C131.216 106.311 130.97 105.48 130.97 104.404V96.5505H128.664V94.8769H130.97V91.8106H133.135Z" fill="white"/>
</g>
<defs>
<clipPath id="clip0">
<rect width="200" height="130" fill="white"/>
</clipPath>
</defs>
</svg>
