<svg width="101" height="100" viewBox="0 0 101 100" fill="none" xmlns="http://www.w3.org/2000/svg">
<path d="M1.09433 34.8721C1.09433 34.8721 -1.33885 33.0961 1.58467 30.7276L8.39146 24.5721C8.39146 24.5721 10.3415 22.4978 12.4017 24.3062L75.2408 72.3961V95.457C75.2408 95.457 75.2095 99.0786 70.6132 98.6798L1.09433 34.8721Z" fill="#67DAB8"/>
<path d="M17.2938 49.7349L1.09426 64.6195C1.09426 64.6195 -0.569663 65.8702 1.09426 68.109L8.61485 75.0208C8.61485 75.0208 10.4009 76.9621 13.0423 74.7549L30.2112 61.5928L17.2938 49.7349Z" fill="#67DAB8"/>
<path d="M45.729 49.8581L75.4328 26.9309L75.2407 3.99406C75.2407 3.99406 73.9723 -1.01206 69.7401 1.59557L30.2112 37.9588L45.729 49.8581Z" fill="#4FA696"/>
<path d="M70.6124 98.7083C72.3366 100.494 74.4281 99.908 74.4281 99.908L97.5759 88.38C100.54 86.3373 100.125 83.8043 100.125 83.8043V14.9498C100.125 11.9223 97.0607 10.8775 97.0607 10.8775L76.9964 1.10113C72.6131 -1.63781 69.7402 1.59558 69.7402 1.59558C69.7402 1.59558 73.4322 -1.0931 75.2408 3.99489V95.0364C75.2408 95.663 75.109 96.2766 74.8453 96.831C74.318 97.9107 73.1686 98.9142 70.4211 98.4935L70.6124 98.7083Z" fill="#67DAB8"/>
</svg>
