<svg width="100" height="100" viewBox="0 0 100 100" fill="none" xmlns="http://www.w3.org/2000/svg">
<path d="M14.8727 88.9656L7.05627 1.29761H92.9438L85.1188 88.9523L49.9477 98.7023L14.8727 88.9656Z" fill="#67DAB8"/>
<path d="M50 91.2499L78.4203 83.3703L85.107 8.46558H50V91.2499Z" fill="#67DAB8"/>
<path d="M50 40.9804H35.7719L34.7891 29.9695H50V19.2179H23.0383L23.2961 22.1023L25.9383 51.7327H50V40.9804ZM50 68.9046L49.9524 68.9179L37.9782 65.6835L37.2133 57.1093H26.4188L27.925 73.9913L49.9508 80.1054L50 80.0921V68.9046Z" fill="#FFFCFC"/>
<path d="M49.9624 40.9804V51.7327H63.2022L61.9546 65.6773L49.9624 68.914V80.1007L72.0054 73.9913L72.1671 72.1749L74.6937 43.8679L74.9554 40.9804H72.0585H49.9624ZM49.9624 19.2179V29.9695H75.9343L76.1499 27.5538L76.6405 22.1023L76.8976 19.2179H49.9624Z" fill="white"/>
</svg>
