<svg width="52" height="50" viewBox="0 0 52 50" fill="none" xmlns="http://www.w3.org/2000/svg">
<path d="M47.8648 0.000189343L3.81224 0.000189343C2.81272 -0.00965272 1.84998 0.364549 1.13528 1.04069C0.420578 1.71682 0.0122887 2.63966 0 3.60672L0 46.4015C0.014511 47.3671 0.423778 48.2878 1.13824 48.9622C1.8527 49.6366 2.81417 50.0097 3.81224 49.9998L47.8648 49.9998C48.8644 50.0075 49.8265 49.632 50.5408 48.9555C51.2551 48.2789 51.6636 47.3563 51.677 46.3892L51.677 3.59442C51.6592 2.63021 51.2487 1.71176 50.5349 1.03873C49.821 0.365697 48.8615 -0.00752439 47.8648 0.000189343ZM15.321 42.6228L7.64989 42.6228L7.64989 18.7418H15.321L15.321 42.6228ZM11.5087 15.4878C10.6289 15.4886 9.76858 15.2369 9.03661 14.7645C8.30465 14.2922 7.73393 13.6204 7.39665 12.8342C7.05937 12.0479 6.97069 11.1825 7.14182 10.3475C7.31296 9.51251 7.73622 8.74536 8.35806 8.14313C8.9799 7.5409 9.77238 7.13065 10.6352 6.96427C11.4981 6.7979 12.3926 6.88288 13.2055 7.20846C14.0185 7.53404 14.7134 8.0856 15.2022 8.79335C15.6911 9.5011 15.9521 10.3333 15.9521 11.1845C15.951 11.7503 15.8346 12.3104 15.6095 12.8326C15.3844 13.3548 15.0551 13.829 14.6404 14.2279C14.2258 14.6268 13.7338 14.9427 13.1928 15.1575C12.6518 15.3723 12.0723 15.4817 11.4875 15.4796L11.5087 15.4878ZM44.0525 42.6228L36.3815 42.6228V31.0041C36.3815 28.2377 36.3306 24.6762 32.3956 24.6762C28.4605 24.6762 27.7912 27.6926 27.7912 30.8237L27.7912 42.6228H20.1329L20.1329 18.7418L27.4862 18.7418L27.4862 22.0205H27.5879C28.613 20.1435 31.1121 18.164 34.8439 18.164C42.6124 18.1476 44.0525 23.0943 44.0525 29.5082V42.6228Z" fill="#595959"/>
</svg>
