<svg width="200" height="100" viewBox="0 0 200 100" fill="none" xmlns="http://www.w3.org/2000/svg">
<g clip-path="url(#clip0)">
<path d="M68.2534 65.2452C65.5008 65.2452 62.6974 63.3172 60.9418 59.5382V79.9528H55.4287V29.5559H60.4138L60.6042 35.0996C62.314 30.8397 65.3507 28.5896 68.248 28.5896C73.804 28.5896 77.8966 36.4696 77.8966 46.9174C77.8966 57.3652 73.8094 65.2498 68.2534 65.2452ZM66.546 35.5079C63.3164 35.5079 60.706 39.7677 60.706 46.9219C60.706 54.0761 63.3164 58.3451 66.546 58.3451C69.7756 58.3451 72.3862 54.0852 72.3862 46.931C72.3862 39.7768 69.7756 35.5079 66.546 35.5079ZM98.676 64.288L98.4858 58.7443C96.7758 63.0041 93.7364 65.2543 90.8392 65.2498C85.2832 65.2498 81.1906 57.3742 81.1906 46.9265C81.1906 36.4787 85.2751 28.5987 90.8392 28.6032C93.7364 28.6032 96.7758 30.8715 98.4858 35.1132L98.676 29.5695H103.672V64.288H98.676ZM92.5518 35.5124C89.3222 35.5124 86.7118 39.7723 86.709 46.9265C86.7063 54.0807 89.3195 58.3451 92.5491 58.3451C95.7787 58.3451 98.3919 54.0852 98.3919 46.931C98.3919 39.7768 95.7814 35.5124 92.5518 35.5124ZM122.934 64.2925V45.0846C122.934 38.3342 121.559 36.084 119.043 36.084C116.43 36.084 113.58 40.0989 113.58 44.9213V64.2925H108.07V29.5695H113.106L113.345 36.0024C114.722 31.5792 117.807 28.6077 120.943 28.6077C126.402 28.6077 128.447 35.0406 128.447 43.6374V64.2971L122.934 64.2925ZM148.637 64.3016L148.447 58.7534C146.737 63.0132 143.697 65.2634 140.803 65.2634C135.247 65.2634 131.154 57.3833 131.154 46.9356C131.154 36.4878 135.239 28.6123 140.803 28.6123C143.556 28.6123 146.356 30.5449 148.115 34.3193V16.0777H153.625V64.3016H148.637ZM142.513 35.526C139.297 35.526 136.673 39.7859 136.673 46.9356C136.673 54.0852 139.283 58.3451 142.513 58.3451C145.743 58.3451 148.353 54.0898 148.353 46.9356C148.353 39.7814 145.751 35.526 142.513 35.526ZM174.321 64.3061L174.131 58.7624C172.421 63.0223 169.381 65.2679 166.484 65.2679C160.928 65.2679 156.836 57.3924 156.836 46.9401C156.836 36.4878 160.92 28.6168 166.484 28.6168C169.381 28.6168 172.421 30.8851 174.131 35.1313L174.321 29.5831H179.307V64.3016L174.321 64.3061ZM168.197 35.5306C164.981 35.5306 162.357 39.7904 162.355 46.9446C162.352 54.0988 164.968 58.3451 168.195 58.3451C171.421 58.3451 174.037 54.0852 174.037 46.931C174.037 39.7768 171.427 35.5306 168.197 35.5306ZM191.509 65.4358C188.612 65.3951 185.773 64.0332 183.295 61.4935L184.197 55.0651C185.86 56.7527 188.376 58.9258 191.416 58.9258C193.6 58.9258 195.12 57.8007 195.12 54.9063C195.12 52.4157 193.552 51.5311 190.751 50.406C185.717 48.5551 183.913 44.0548 183.913 39.1508C183.913 33.6842 186.431 28.5442 191.987 28.5442C195.357 28.5442 198.304 31.0348 198.955 31.679L198.052 37.7898C196.257 35.9617 194.211 34.9636 192.117 34.8954C189.888 34.8954 188.795 36.1793 188.795 38.2707C188.795 40.5979 190.22 41.6459 192.401 42.5305C197.816 44.4586 200 48.7184 200 53.382C200.011 60.8538 196.781 65.4358 191.509 65.4358Z" fill="#67DAB8"/>
<path d="M16.8262 5.91119H10.3696V28.6032H16.8262V5.91119Z" fill="#67DAB8"/>
<path d="M16.8262 52.5246H10.3696V75.2166H16.8262V52.5246Z" fill="#67DAB8"/>
<path d="M16.8262 35.2266H10.3696V45.933H16.8262V35.2266Z" fill="#FFCA00"/>
<path d="M6.45653 24.5702H0V100H6.45653V24.5702Z" fill="#67DAB8"/>
<path d="M26.984 71.2471H20.5275V93.9391H26.984V71.2471Z" fill="#67DAB8"/>
<path d="M26.984 24.5974H20.5275V47.2894H26.984V24.5974Z" fill="#67DAB8"/>
<path d="M26.984 53.9128H20.5275V64.6192H26.984V53.9128Z" fill="#E70488"/>
<path d="M37.1392 0H30.6826V75.4298H37.1392V0Z" fill="#67DAB8"/>
</g>
<defs>
<clipPath id="clip0">
<rect width="200" height="100" fill="white"/>
</clipPath>
</defs>
</svg>
