<svg width="100" height="100" viewBox="0 0 100 100" fill="none" xmlns="http://www.w3.org/2000/svg">
<path d="M27.0697 0.00193157C26.4237 0.0171858 25.7287 0.204474 24.9399 0.691761C23.0072 0.107864 21.1343 -0.0946782 19.4586 1.09345C16.8714 0.830743 16.0304 1.37312 15.3929 2.00616C14.8258 1.99684 11.1439 1.54854 9.4554 3.52141C5.21279 3.1282 3.87072 5.47565 5.38974 7.66463C4.52417 8.71547 3.62554 9.75276 5.65198 11.7553C4.93564 12.8714 5.38015 14.0807 7.06973 15.546C6.62308 17.1138 7.49932 18.2197 9.07058 19.0824C8.77637 21.2273 11.5831 22.4756 12.421 22.9197C12.7429 24.1697 13.4145 25.3502 16.6209 26.0019C17.1486 27.8663 19.0759 28.1875 20.9414 28.5781C14.7747 31.3858 9.48631 35.0781 9.52256 44.14L8.6186 45.4027C1.54795 48.7696 -4.81384 59.5916 5.13391 68.3882C5.78416 71.1424 6.87359 73.1196 7.84363 75.3085C9.2955 84.1297 18.7668 88.2594 21.2643 88.7483C24.926 90.9314 28.8243 93.0026 34.1009 94.4543C39.0737 98.4712 44.4622 100.002 49.8806 100H50.1194C55.5378 100.003 60.9263 98.4712 65.8991 94.4543C71.1758 93.0034 75.0741 90.9314 78.7346 88.7483C81.2333 88.2594 90.7045 84.1297 92.1553 75.3077C93.1254 73.1196 94.2159 71.1424 94.8661 68.3882C104.814 59.5916 98.4521 48.7679 91.3804 45.4001L90.4764 44.1391C90.5127 35.0781 85.2243 31.3849 79.0576 28.5773C80.9231 28.1866 82.8504 27.8646 83.3791 26.001C86.5845 25.3485 87.255 24.1688 87.577 22.9188C88.4159 22.4739 91.2226 21.2265 90.9284 19.0799C92.4997 18.2188 93.3759 17.1121 92.9303 15.5443C94.6188 14.0799 95.0623 12.8697 94.3459 11.7544C96.3734 9.75276 95.4737 8.71462 94.6082 7.66378C96.1272 5.4748 94.7873 3.12735 90.5425 3.52057C88.854 1.54854 85.1732 1.99684 84.605 2.00532C83.9675 1.37227 83.1265 0.829896 80.5393 1.09261C78.8647 -0.0946782 76.9907 0.107864 75.0581 0.691761C72.7641 -0.726033 71.245 0.410405 69.5107 0.840065C66.7327 0.128203 66.0974 1.10278 64.733 1.49939C61.7034 0.997692 60.7824 2.08921 59.3295 3.24175L57.6399 3.21548C53.0711 5.32395 50.8006 9.61801 49.9968 11.8256C49.1909 9.61716 46.9268 5.32311 42.358 3.21548L40.6684 3.24091C39.2144 2.08837 38.2934 0.997692 35.2639 1.49939C33.8994 1.10278 33.2652 0.12905 30.4851 0.840065C29.3466 0.557863 28.2998 -0.0285768 27.0676 0.00108417L27.0697 0.00193157" fill="#050606"/>
<path d="M18.0631 9.27981C30.1865 14.173 37.2337 18.1332 41.0947 21.5052C39.1184 27.7111 28.8029 27.9942 25.0304 27.8196C25.8032 27.5382 26.4481 27.201 26.6763 26.684C25.7297 26.1569 22.374 26.6281 20.0309 25.5967C20.9306 25.451 21.3517 25.3086 21.7727 24.7891C19.5587 24.2357 17.1752 23.7594 15.7723 22.8433C16.5292 22.8518 17.2359 22.9764 18.2241 22.4391C16.2414 21.6027 14.1254 20.94 12.4827 19.6611C13.5061 19.6416 14.6125 19.6527 14.9345 19.3578C13.1191 18.4781 11.5873 17.4984 10.3209 16.4281C11.7557 16.5637 12.3612 16.4467 12.7087 16.2501C11.3357 15.151 9.6003 14.2222 8.77203 12.8662C9.83801 13.1544 10.8123 13.2645 11.5148 12.8408C11.0479 12.0171 9.05132 11.5315 7.90112 9.60778C9.02254 9.69252 10.2122 9.7993 10.4499 9.60778C9.92969 7.94676 9.03639 7.01371 8.16016 6.04677C10.5597 6.0188 14.1957 6.05355 14.0316 5.89423L12.5477 4.70779C14.8918 4.21372 17.2903 4.78745 19.0321 5.21287C19.8135 4.72982 19.0182 4.11965 18.0642 3.49508C20.0565 3.70355 21.8559 4.06287 23.4826 4.55609C24.3524 3.94169 22.9187 3.32728 22.2247 2.71203C25.3033 3.16966 26.607 3.81203 27.9021 4.45525C28.8434 3.74932 27.9554 3.15016 27.3222 2.53576C29.6429 3.20864 30.8379 4.07813 32.0968 4.93491C32.5232 4.48406 33.1798 4.15355 32.3867 3.06542C34.0337 3.80948 35.2755 4.68575 36.1923 5.66711C37.2124 5.15863 36.7999 4.46372 36.8063 3.82389C38.5183 4.91457 39.6056 6.07473 40.9359 7.20863C41.2024 7.05609 41.4369 6.53744 41.6448 5.71795C45.7296 8.82134 51.5019 16.6383 43.1286 19.7374C36.0025 15.1357 27.4907 11.79 18.0599 9.27981H18.0621H18.0631ZM82.2757 9.27981C70.1523 14.1739 63.1051 18.1323 59.2441 21.5052C61.2215 27.7111 71.537 27.9942 75.3085 27.8196C74.5356 27.5382 73.8918 27.201 73.6637 26.684C74.6103 26.1569 77.966 26.6281 80.309 25.5967C79.4093 25.451 78.9872 25.3086 78.5672 24.7891C80.7802 24.2357 83.1648 23.7594 84.5665 22.8433C83.8097 22.8518 83.1029 22.9764 82.1148 22.4391C84.0975 21.6027 86.2135 20.94 87.8572 19.6611C86.8318 19.6416 85.7274 19.6527 85.4055 19.3578C87.2208 18.4781 88.7516 17.4984 90.019 16.4281C88.5842 16.5637 87.9787 16.4467 87.6312 16.2501C89.0032 15.151 90.7396 14.2222 91.5668 12.8662C90.5019 13.1544 89.5276 13.2645 88.8251 12.8408C89.291 12.0171 91.2875 11.5315 92.4388 9.60778C91.3163 9.69252 90.1278 9.7993 89.889 9.60778C90.4113 7.94676 91.3035 7.01287 92.1798 6.04592C89.7803 6.01795 86.1442 6.0527 86.3084 5.89423L87.7933 4.70779C85.4481 4.21287 83.0496 4.7866 81.3089 5.21202C80.5265 4.72897 81.3228 4.11881 82.2757 3.49423C80.2845 3.70271 78.4841 4.06203 76.8574 4.55525C75.9875 3.94084 77.4213 3.32644 78.1152 2.71118C75.0377 3.16881 73.734 3.81118 72.4378 4.4544C71.4976 3.74847 72.3845 3.14932 73.0177 2.53491C70.6971 3.20779 69.5021 4.07728 68.2442 4.93406C67.8178 4.48321 67.1601 4.1527 67.9532 3.06457C66.3063 3.80864 65.0644 4.68491 64.1477 5.66626C63.1275 5.15779 63.54 4.46287 63.5336 3.82304C61.8217 4.91372 60.7344 6.07473 59.4051 7.20778C59.1375 7.05524 58.903 6.5366 58.6952 5.71711C54.6103 8.82049 48.838 16.6374 57.2113 19.7366C64.3342 15.1332 72.8439 11.7883 82.2768 9.27896H82.2757" fill="#63C54D"/>
<path d="M64.831 72.4746C64.8736 78.2653 58.4052 82.9847 50.3858 83.0153C42.3654 83.0458 35.8298 78.3763 35.7872 72.5848V72.4746C35.7446 66.6831 42.2119 61.9636 50.2323 61.9331C58.2528 61.9026 64.7883 66.5721 64.831 72.3636V72.4738V72.4746ZM42.1884 42.5196C48.2059 45.606 49.29 52.6043 44.6114 58.1484C39.9317 63.6933 31.261 65.6856 25.2436 62.5984C19.2272 59.5119 18.142 52.5136 22.8206 46.9696C27.5003 41.4247 36.171 39.4323 42.1884 42.5196V42.5196ZM58.4297 41.9603C52.4123 45.0475 51.3271 52.045 56.0068 57.5899C60.6864 63.1339 69.3571 65.1272 75.3735 62.039C81.391 58.9526 82.4761 51.9552 77.7965 46.4103C73.1168 40.8662 64.4472 38.8738 58.4297 41.9611V41.9603ZM12.487 47.5984C18.9831 46.2348 14.6797 68.645 9.39456 66.806C3.57962 63.1441 1.70669 52.4187 12.4859 47.5984H12.487ZM87.563 47.3196C81.0659 45.956 85.3692 68.3661 90.6554 66.528C96.4704 62.8653 98.3422 52.1399 87.563 47.3196ZM65.7743 30.5993C76.9853 29.1162 86.3137 34.3323 85.9374 43.8526C85.5686 47.5018 61.6437 31.1425 65.7743 30.5984V30.5993ZM34.798 30.3196C23.5849 28.8366 14.2565 34.0544 14.6339 43.5738C15.0027 47.223 38.9276 30.8628 34.798 30.3196ZM50.243 28.0993C43.5518 27.9637 37.1303 31.9891 37.1144 34.323C37.0962 37.1603 42.4048 40.0645 50.2899 40.1382C58.3402 40.1832 63.4772 37.8137 63.5038 34.8857C63.5326 31.5688 56.1805 28.0484 50.243 28.0993ZM50.76 86.2729C56.5941 86.0729 64.4227 87.7441 64.4376 89.9602C64.5346 92.1127 57.3382 96.9754 50.373 96.8822C43.1595 97.1254 36.0867 92.2551 36.1795 90.5669C36.0718 88.0915 44.9632 86.1593 50.76 86.2729V86.2729ZM29.1696 73.1356C33.3227 77.0551 35.2158 83.939 31.7503 85.9678C28.4714 87.5178 20.5074 86.8796 14.846 80.5119C11.0298 75.1695 11.5212 69.7322 14.2021 68.1348C18.2102 66.2229 24.4036 68.8051 29.1685 73.1356H29.1696ZM70.9891 71.8941C66.4939 76.0161 63.991 83.5339 67.2699 85.9551C70.4039 87.8364 78.8188 87.5737 85.0356 80.8195C89.5489 76.2839 88.0363 68.7094 85.4588 66.6975C81.6287 64.3772 76.1314 67.3458 70.9881 71.8924V71.8941" fill="#67DAB8"/>
</svg>
