<svg width="100" height="100" viewBox="0 0 100 100" fill="none" xmlns="http://www.w3.org/2000/svg">
<path fill-rule="evenodd" clip-rule="evenodd" d="M0 41.6988C0 42.4474 0.164869 42.9416 0.25726 43.4219C0.859391 46.5453 2.15366 49.2258 3.68925 51.6709C5.87636 55.1554 8.55488 57.9604 11.2987 60.5983C13.6786 62.8858 16.107 65.1221 18.4964 67.3926C18.9066 67.7824 19.2945 68.2307 19.7397 68.7089C19.3566 68.9858 19.038 69.2296 18.7067 69.4543C15.5535 71.5927 12.5197 73.9899 9.72331 76.894C8.03798 78.6448 6.4084 80.5052 5.2575 82.9365C3.40571 86.8469 2.75021 91.013 4.13049 95.4612C4.53351 96.7605 5.14838 97.8829 6.01574 98.7125C6.29689 98.9809 6.61229 99.2471 6.94124 99.3515C7.7839 99.6166 8.6425 99.7902 9.49552 100L11.9112 99.9979C14.5826 99.6795 17.0142 98.4558 19.2117 96.4282C22.646 93.2589 24.9598 89.0098 25.9546 83.5563C26.6778 79.5926 26.7072 75.6246 25.855 71.679C25.7734 71.3135 25.6794 70.9531 25.5731 70.5991C25.4695 70.2445 25.3477 69.8995 25.2043 69.4575L30.6808 65.2467L30.7629 65.3405C30.6633 65.776 30.5574 66.2105 30.4674 66.6503C29.8167 69.8281 29.3842 73.0613 29.5395 76.3594C29.7051 79.8737 30.4387 83.1633 31.9775 86.0993C33.2216 88.4742 36.186 88.5626 37.5082 86.1792C37.9773 85.3326 38.4321 84.4476 38.7738 83.503C39.6666 81.0377 40.4933 78.5287 41.3464 76.0367L41.4953 75.5809C41.434 76.7609 41.3623 77.7971 41.3296 78.8343C41.2787 80.4541 41.3495 82.0643 41.7637 83.6053C42.1181 84.9237 42.7211 85.9087 43.8505 86.0823C44.623 86.2005 45.2387 85.7277 45.8066 85.1281C46.6864 84.1985 47.4156 83.0395 47.9499 81.7214C49.464 78.0037 51.0187 74.3083 52.391 70.4969C53.8756 66.3745 55.1739 62.1318 56.5526 57.9391L56.7804 57.1958C57.1061 58.9072 57.3331 60.5834 57.7512 62.1701C58.2371 64.0114 58.8384 65.809 59.4931 67.5566C59.803 68.3819 59.7671 68.9176 59.3378 69.6098C57.541 72.5064 55.7752 75.4382 54.0078 78.3668C53.6168 79.0132 53.2273 79.6714 52.9015 80.3774C52.7039 80.8233 52.574 81.3169 52.5192 81.83C52.4644 82.3024 52.5485 82.7848 52.7539 83.1761C52.9592 83.5674 53.2699 83.8372 53.6208 83.929C54.3289 84.1329 55.055 84.2021 55.7776 84.1345C58.2443 83.8917 60.4839 82.7341 62.464 80.7725C65.0294 78.2316 65.8529 74.7641 65.2317 70.6545C65.0636 69.5395 64.7666 68.4554 64.4774 67.3809C64.3476 66.8963 64.3388 66.5566 64.5754 66.1051C66.6263 62.1893 68.3785 58.035 70.0081 53.7848C70.0726 53.6176 70.1387 53.4504 70.2518 53.2715C70.7799 56.9455 71.5748 60.4865 72.9989 63.6994C72.2725 64.6355 71.5533 65.4842 70.9026 66.4193C69.4697 68.4788 68.2272 70.7152 67.5789 73.4425C67.3001 74.6182 67.0859 75.8131 67.2101 77.0687C67.4029 79.0186 68.5976 80.2858 70.032 79.8418C73.1016 78.8918 75.7515 76.9579 77.6877 73.532C78.9907 71.2253 79.1094 68.6524 78.5638 65.9571C78.4141 65.2244 78.2365 64.5034 78.0453 63.6632C78.8027 63.349 79.5411 62.972 80.3049 62.7388C84.2705 61.529 88.1931 61.7399 92.0146 63.6547C94.2455 64.7729 96.0479 66.644 97.1168 69.5874C98.4222 73.1859 97.7006 76.6001 95.1638 78.8748C94.9273 79.0867 94.6565 79.2539 94.4606 79.5191C94.3978 79.6163 94.3509 79.73 94.3227 79.8529C94.2946 79.9757 94.286 80.105 94.2973 80.2326C94.314 80.3636 94.5729 80.5276 94.7218 80.5254C95.5557 80.5169 96.2319 79.9323 96.881 79.3317C98.5074 77.8269 99.6942 75.8024 99.9498 73.1369L100 72.9367L99.9387 71.2008C99.914 71.1007 99.957 71.0017 99.9514 70.9261C99.6057 67.0444 98.055 64.0338 95.7994 61.6739C93.187 58.9423 90.1023 57.8177 86.8399 57.6399C84.1941 57.4876 81.5516 58.0315 79.0624 59.2405C78.348 59.5866 77.6399 59.9966 76.9215 60.3832C76.8251 60.1499 76.7216 59.9263 76.6363 59.6952C75.8988 57.6761 75.0052 55.7464 74.8076 53.4312C74.6675 51.787 74.4954 50.1448 74.7877 48.5187C75.0689 46.9543 75.4353 45.4165 75.7801 43.8734C75.9578 43.079 75.8327 42.6338 75.2656 42.276C75.068 42.1442 74.8571 42.0517 74.6396 42.0012C73.2458 41.7307 71.8711 41.8852 70.5211 42.4102C70.0432 42.5965 69.6959 42.9544 69.59 43.6615C69.5294 44.0672 69.406 44.4559 69.32 44.8563C68.9671 46.5208 68.717 48.2173 68.1468 49.803C66.7179 53.7805 65.0867 57.6079 63.4173 61.4076C63.2365 61.8176 63.0462 62.2202 62.8184 62.7175C62.2322 61.0775 61.607 59.6058 61.4174 57.8806C61.2031 55.9296 61.0343 53.9818 61.3975 52.0458C61.6675 50.6017 62.0203 49.1843 62.3453 47.7594C62.499 47.0821 62.4281 46.7264 61.9694 46.3696C61.7376 46.1896 61.4755 46.0299 61.2143 45.9777C59.7851 45.6866 58.3248 45.8464 56.95 46.4442C56.5175 46.6316 56.2905 47.0054 56.1583 47.6018C55.7696 49.361 55.4383 51.1629 54.8927 52.8359C52.6833 59.609 50.4102 66.3468 48.1394 73.0836C47.6655 74.4904 47.1104 75.8482 46.576 77.2177C46.4406 77.5649 46.2431 77.8706 46.0742 78.1964C45.9388 77.9824 45.8862 77.8354 45.887 77.6884C45.891 76.8226 45.8138 75.9313 45.9372 75.0943C46.3163 72.5627 46.7353 70.0421 47.194 67.5342C47.5684 65.4619 48.004 63.4087 48.419 61.3501C48.5584 60.6611 48.5608 60.0168 48.1904 59.4375C47.5684 58.4673 46.2685 58.2544 45.4976 59.0019L45.1567 59.2597L45.2228 58.5248C45.3853 56.9498 45.4179 55.3801 45.0945 53.8285C44.6915 51.8945 43.6593 50.7817 42.1588 50.8434C41.4595 50.8722 40.7251 51.0319 40.0776 51.3727C37.3544 52.7997 35.2605 55.3268 33.478 58.3672C33.3128 58.6495 33.108 58.8861 32.8751 59.0637C30.5709 60.7719 28.2596 62.4587 25.949 64.152L23.3772 66.0359C22.6874 65.1562 22.0606 64.2436 21.3494 63.4694C19.1774 61.1009 16.9704 58.7911 14.7833 56.4493C12.8447 54.3737 10.9666 52.2119 9.52976 49.4633C8.4609 47.4186 7.77195 45.1811 7.70585 42.653C7.62222 39.4315 8.30559 36.488 9.53215 33.748C11.1012 30.2422 13.2413 27.4286 15.5941 24.8802C18.0831 22.1859 20.7751 19.8984 23.5652 17.8101C27.4687 14.8889 31.4837 12.3033 35.7886 10.5962C40.2026 8.84539 44.6812 7.84328 49.3007 8.54188C51.1166 8.81664 52.88 9.37254 54.4993 10.5599C55.7394 11.4683 56.7565 12.6579 57.2296 14.5173C57.6963 16.3468 57.682 18.2009 57.3586 20.0592C56.7015 23.8227 55.1603 26.9249 53.2209 29.6969C50.0398 34.241 46.1594 37.3347 41.7908 39.3783C39.2789 40.5549 36.6655 41.3002 34.0133 41.5966C31.8397 41.8404 29.7115 41.5827 27.6534 40.5721C26.2907 39.9022 25.1039 38.8778 24.1498 37.3911C23.9793 37.1249 23.7611 36.8363 23.4433 37.0855C23.1319 37.3304 23.0769 37.7266 23.1813 38.1281C23.3557 38.7947 23.5166 39.489 23.7882 40.0854C24.4707 41.5816 25.4663 42.6668 26.5623 43.5976C28.6673 45.3877 31.0201 45.9894 33.4597 46.1289C37.1617 46.343 40.7737 45.6039 44.3347 44.2759C49.4186 42.3804 53.839 39.0322 57.3841 33.7501C60.3358 29.3519 62.444 24.3882 62.8956 18.3947C63.1163 15.4693 62.8813 12.6036 61.8571 9.93483C60.746 7.04351 58.9794 4.8934 56.8672 3.41207C53.7912 1.25556 50.4715 0 47.0451 0H43.6123C39.4627 0 35.4509 1.58996 31.5514 3.48661C28.5996 4.92322 25.7053 6.6186 22.8953 8.49503C16.776 12.5833 11.0773 17.5129 6.39645 24.2913C4.06439 27.6682 2.08994 31.3944 0.954171 35.782C0.611375 37.0919 0.316071 38.4232 0.0692929 39.7713L0 41.6988ZM22.2422 78.1229C21.977 82.8715 20.3673 86.7213 17.7366 89.8394C16.2568 91.5923 14.5595 92.8404 12.5826 93.2792C11.8658 93.4378 11.1323 93.4762 10.4369 93.079C9.44534 92.5124 9.22312 91.3356 9.20401 90.0822C9.17454 88.0844 9.69782 86.2783 10.4154 84.5594C11.3521 82.3188 12.7252 80.6106 14.1915 79.0154C16.5013 76.501 19.007 74.3733 21.5732 72.3648L21.7667 72.2583C22.1634 74.2178 22.3521 76.1528 22.2422 78.1229V78.1229ZM42.2798 57.4855C42.0926 59.0019 41.8585 60.5195 41.5272 61.9891C40.3818 67.0763 38.9107 72.0059 37.3202 76.8695C37.0263 77.7694 36.5986 78.5904 36.2266 79.4435C36.1634 79.5746 36.0876 79.6942 36.0012 79.7992C35.5409 80.4072 35.1044 80.3753 34.8718 79.5798C34.601 78.6554 34.4346 77.6661 34.2912 76.6874C34.1948 76.0303 34.2179 75.3403 34.1877 74.6672C34.2187 69.8814 35.3107 65.5322 37.1633 61.4833C37.9271 59.8134 38.7586 58.2224 40.029 57.166C40.4242 56.8375 40.8518 56.5844 41.2994 56.4141C41.9764 56.1596 42.3921 56.5781 42.2798 57.4855V57.4855ZM55.9504 80.7736L60.8639 73.1028C61.0685 75.9515 57.447 81.6383 55.9504 80.7736ZM71.6433 75.6118C71.296 75.878 70.9177 76.0697 70.5617 76.3157C70.2359 76.5415 70.1284 76.3136 70.1188 75.9387C70.114 75.6792 70.139 75.4203 70.1929 75.1709C70.8564 72.0421 72.0774 69.3713 73.8941 67.1988L74.0215 67.1115C74.8857 70.3436 73.8869 73.893 71.6433 75.6118Z" fill="#67DAB8"/>
</svg>
