<svg width="108" height="27" viewBox="0 0 108 27" fill="none" xmlns="http://www.w3.org/2000/svg">
<path d="M7.67191 18.288C6.32791 18.288 5.12257 18.064 4.05591 17.616C2.98924 17.1467 2.14657 16.5067 1.52791 15.696C0.90924 14.864 0.567906 13.9147 0.503906 12.848H3.51191C3.59724 13.7227 4.00257 14.4374 4.72791 14.992C5.47457 15.5467 6.44524 15.824 7.63991 15.824C8.74924 15.824 9.62391 15.5787 10.2639 15.088C10.9039 14.5974 11.2239 13.9787 11.2239 13.232C11.2239 12.464 10.8826 11.8987 10.1999 11.536C9.51724 11.152 8.46124 10.7787 7.03191 10.416C5.73057 10.0747 4.66391 9.73338 3.83191 9.39204C3.02124 9.02938 2.31724 8.50671 1.71991 7.82404C1.14391 7.12004 0.855906 6.20271 0.855906 5.07204C0.855906 4.17604 1.12257 3.35471 1.65591 2.60804C2.18924 1.86138 2.94657 1.27471 3.92791 0.848043C4.90924 0.400043 6.02924 0.176043 7.28791 0.176043C9.22924 0.176043 10.7972 0.666709 11.9919 1.64804C13.1866 2.62938 13.8266 3.97338 13.9119 5.68004H10.9999C10.9359 4.76271 10.5626 4.02671 9.87991 3.47204C9.21857 2.91738 8.32257 2.64004 7.19191 2.64004C6.14657 2.64004 5.31457 2.86404 4.69591 3.31204C4.07724 3.76004 3.76791 4.34671 3.76791 5.07204C3.76791 5.64804 3.94924 6.12804 4.31191 6.51204C4.69591 6.87471 5.16524 7.17338 5.71991 7.40804C6.29591 7.62138 7.08524 7.86671 8.08791 8.14404C9.34657 8.48538 10.3706 8.82671 11.1599 9.16804C11.9492 9.48804 12.6212 9.97871 13.1759 10.64C13.7519 11.3014 14.0506 12.1654 14.0719 13.232C14.0719 14.192 13.8052 15.056 13.2719 15.824C12.7386 16.592 11.9812 17.2 10.9999 17.648C10.0399 18.0747 8.93057 18.288 7.67191 18.288Z" fill="#67DAB8"/>
<path d="M17.0947 9.20004C17.0947 7.38671 17.4573 5.80804 18.1827 4.46404C18.908 3.09871 19.9107 2.04271 21.1907 1.29604C22.492 0.549376 23.9747 0.176043 25.6387 0.176043C27.7933 0.176043 29.564 0.698709 30.9507 1.74404C32.3587 2.78938 33.2867 4.24004 33.7347 6.09604H30.5987C30.3 5.02938 29.7133 4.18671 28.8387 3.56804C27.9853 2.94938 26.9187 2.64004 25.6387 2.64004C23.9747 2.64004 22.6307 3.21604 21.6067 4.36804C20.5827 5.49871 20.0707 7.10938 20.0707 9.20004C20.0707 11.312 20.5827 12.944 21.6067 14.096C22.6307 15.248 23.9747 15.824 25.6387 15.824C26.9187 15.824 27.9853 15.5254 28.8387 14.928C29.692 14.3307 30.2787 13.4774 30.5987 12.368H33.7347C33.2653 14.16 32.3267 15.6 30.9187 16.688C29.5107 17.7547 27.7507 18.288 25.6387 18.288C23.9747 18.288 22.492 17.9147 21.1907 17.168C19.9107 16.4214 18.908 15.3654 18.1827 14C17.4573 12.6347 17.0947 11.0347 17.0947 9.20004Z" fill="#67DAB8"/>
<path d="M40.5322 3.31204C41.0442 2.30938 41.7695 1.53071 42.7082 0.976044C43.6682 0.421377 44.8308 0.144043 46.1962 0.144043V3.15204H45.4282C42.1642 3.15204 40.5322 4.92271 40.5322 8.46404V18H37.6202V0.464043H40.5322V3.31204Z" fill="#67DAB8"/>
<path d="M48.4697 9.16804C48.4697 7.37604 48.8323 5.80804 49.5577 4.46404C50.283 3.09871 51.275 2.04271 52.5337 1.29604C53.8137 0.549376 55.2323 0.176043 56.7897 0.176043C58.3257 0.176043 59.659 0.506709 60.7897 1.16804C61.9203 1.82938 62.763 2.66138 63.3177 3.66404V0.464043H66.2617V18H63.3177V14.736C62.7417 15.76 61.8777 16.6134 60.7257 17.296C59.595 17.9574 58.2723 18.288 56.7577 18.288C55.2003 18.288 53.7923 17.904 52.5337 17.136C51.275 16.368 50.283 15.2907 49.5577 13.904C48.8323 12.5174 48.4697 10.9387 48.4697 9.16804ZM63.3177 9.20004C63.3177 7.87738 63.051 6.72538 62.5177 5.74404C61.9843 4.76271 61.259 4.01604 60.3417 3.50404C59.4457 2.97071 58.4537 2.70404 57.3657 2.70404C56.2777 2.70404 55.2857 2.96004 54.3897 3.47204C53.4937 3.98404 52.779 4.73071 52.2457 5.71204C51.7123 6.69338 51.4457 7.84538 51.4457 9.16804C51.4457 10.512 51.7123 11.6854 52.2457 12.688C52.779 13.6694 53.4937 14.4267 54.3897 14.96C55.2857 15.472 56.2777 15.728 57.3657 15.728C58.4537 15.728 59.4457 15.472 60.3417 14.96C61.259 14.4267 61.9843 13.6694 62.5177 12.688C63.051 11.6854 63.3177 10.5227 63.3177 9.20004Z" fill="#67DAB8"/>
<path d="M74.0947 3.69604C74.6707 2.69338 75.524 1.86138 76.6547 1.20004C77.8067 0.517376 79.14 0.176043 80.6547 0.176043C82.212 0.176043 83.62 0.549376 84.8787 1.29604C86.1587 2.04271 87.1613 3.09871 87.8867 4.46404C88.612 5.80804 88.9747 7.37604 88.9747 9.16804C88.9747 10.9387 88.612 12.5174 87.8867 13.904C87.1613 15.2907 86.1587 16.368 84.8787 17.136C83.62 17.904 82.212 18.288 80.6547 18.288C79.1613 18.288 77.8387 17.9574 76.6867 17.296C75.556 16.6134 74.692 15.7707 74.0947 14.768V26.32H71.1827V0.464043H74.0947V3.69604ZM85.9987 9.16804C85.9987 7.84538 85.732 6.69338 85.1987 5.71204C84.6653 4.73071 83.94 3.98404 83.0227 3.47204C82.1267 2.96004 81.1347 2.70404 80.0467 2.70404C78.98 2.70404 77.988 2.97071 77.0707 3.50404C76.1747 4.01604 75.4493 4.77338 74.8947 5.77604C74.3613 6.75738 74.0947 7.89871 74.0947 9.20004C74.0947 10.5227 74.3613 11.6854 74.8947 12.688C75.4493 13.6694 76.1747 14.4267 77.0707 14.96C77.988 15.472 78.98 15.728 80.0467 15.728C81.1347 15.728 82.1267 15.472 83.0227 14.96C83.94 14.4267 84.6653 13.6694 85.1987 12.688C85.732 11.6854 85.9987 10.512 85.9987 9.16804Z" fill="#67DAB8"/>
<path d="M107.912 0.464043L97.3517 26.256H94.3437L97.7997 17.808L90.7277 0.464043H93.9597L99.4637 14.672L104.904 0.464043H107.912Z" fill="#67DAB8"/>
</svg>
