<svg width="130" height="25" viewBox="0 0 130 25" fill="none" xmlns="http://www.w3.org/2000/svg">
<path d="M7.67191 24.288C6.32791 24.288 5.12257 24.064 4.05591 23.616C2.98924 23.1467 2.14657 22.5067 1.52791 21.696C0.90924 20.864 0.567906 19.9147 0.503906 18.848H3.51191C3.59724 19.7227 4.00257 20.4373 4.72791 20.992C5.47457 21.5467 6.44524 21.824 7.63991 21.824C8.74924 21.824 9.62391 21.5787 10.2639 21.088C10.9039 20.5973 11.2239 19.9787 11.2239 19.232C11.2239 18.464 10.8826 17.8987 10.1999 17.536C9.51724 17.152 8.46124 16.7787 7.03191 16.416C5.73057 16.0747 4.66391 15.7333 3.83191 15.392C3.02124 15.0293 2.31724 14.5067 1.71991 13.824C1.14391 13.12 0.855906 12.2027 0.855906 11.072C0.855906 10.176 1.12257 9.35467 1.65591 8.60801C2.18924 7.86134 2.94657 7.27467 3.92791 6.84801C4.90924 6.40001 6.02924 6.17601 7.28791 6.17601C9.22924 6.17601 10.7972 6.66667 11.9919 7.64801C13.1866 8.62934 13.8266 9.97334 13.9119 11.68H10.9999C10.9359 10.7627 10.5626 10.0267 9.87991 9.47201C9.21857 8.91734 8.32257 8.64001 7.19191 8.64001C6.14657 8.64001 5.31457 8.86401 4.69591 9.31201C4.07724 9.76001 3.76791 10.3467 3.76791 11.072C3.76791 11.648 3.94924 12.128 4.31191 12.512C4.69591 12.8747 5.16524 13.1733 5.71991 13.408C6.29591 13.6213 7.08524 13.8667 8.08791 14.144C9.34657 14.4853 10.3706 14.8267 11.1599 15.168C11.9492 15.488 12.6212 15.9787 13.1759 16.64C13.7519 17.3013 14.0506 18.1653 14.0719 19.232C14.0719 20.192 13.8052 21.056 13.2719 21.824C12.7386 22.592 11.9812 23.2 10.9999 23.648C10.0399 24.0747 8.93057 24.288 7.67191 24.288Z" fill="#67DAB8"/>
<path d="M34.1827 14.56C34.1827 15.1147 34.1507 15.7013 34.0867 16.32H20.0707C20.1773 18.048 20.764 19.4027 21.8307 20.384C22.9187 21.344 24.2307 21.824 25.7667 21.824C27.0253 21.824 28.0707 21.536 28.9027 20.96C29.756 20.3627 30.3533 19.5733 30.6947 18.592H33.8307C33.3613 20.2773 32.4227 21.6533 31.0147 22.72C29.6067 23.7653 27.8573 24.288 25.7667 24.288C24.1027 24.288 22.6093 23.9147 21.2867 23.168C19.9853 22.4213 18.9613 21.3653 18.2147 20C17.468 18.6133 17.0947 17.0133 17.0947 15.2C17.0947 13.3867 17.4573 11.7973 18.1827 10.432C18.908 9.06667 19.9213 8.02134 21.2227 7.29601C22.5453 6.54934 24.06 6.17601 25.7667 6.17601C27.4307 6.17601 28.9027 6.53867 30.1827 7.26401C31.4627 7.98934 32.444 8.99201 33.1267 10.272C33.8307 11.5307 34.1827 12.96 34.1827 14.56ZM31.1747 13.952C31.1747 12.8427 30.9293 11.8933 30.4387 11.104C29.948 10.2933 29.276 9.68534 28.4227 9.28001C27.5907 8.85334 26.6627 8.64001 25.6387 8.64001C24.1667 8.64001 22.908 9.10934 21.8627 10.048C20.8387 10.9867 20.252 12.288 20.1027 13.952H31.1747Z" fill="#67DAB8"/>
<path d="M36.9384 15.168C36.9384 13.376 37.3011 11.808 38.0264 10.464C38.7517 9.09867 39.7437 8.04267 41.0024 7.29601C42.2824 6.54934 43.7011 6.17601 45.2584 6.17601C46.7944 6.17601 48.1277 6.50667 49.2584 7.16801C50.3891 7.82934 51.2317 8.66134 51.7864 9.66401V6.46401H54.7304V24H51.7864V20.736C51.2104 21.76 50.3464 22.6133 49.1944 23.296C48.0637 23.9573 46.7411 24.288 45.2264 24.288C43.6691 24.288 42.2611 23.904 41.0024 23.136C39.7437 22.368 38.7517 21.2907 38.0264 19.904C37.3011 18.5173 36.9384 16.9387 36.9384 15.168ZM51.7864 15.2C51.7864 13.8773 51.5197 12.7253 50.9864 11.744C50.4531 10.7627 49.7277 10.016 48.8104 9.50401C47.9144 8.97067 46.9224 8.70401 45.8344 8.70401C44.7464 8.70401 43.7544 8.96001 42.8584 9.47201C41.9624 9.98401 41.2477 10.7307 40.7144 11.712C40.1811 12.6933 39.9144 13.8453 39.9144 15.168C39.9144 16.512 40.1811 17.6853 40.7144 18.688C41.2477 19.6693 41.9624 20.4267 42.8584 20.96C43.7544 21.472 44.7464 21.728 45.8344 21.728C46.9224 21.728 47.9144 21.472 48.8104 20.96C49.7277 20.4267 50.4531 19.6693 50.9864 18.688C51.5197 17.6853 51.7864 16.5227 51.7864 15.2Z" fill="#67DAB8"/>
<path d="M62.5634 9.72801C63.1607 8.68267 64.0354 7.82934 65.1874 7.16801C66.3394 6.50667 67.6514 6.17601 69.1234 6.17601C70.7021 6.17601 72.1207 6.54934 73.3794 7.29601C74.6381 8.04267 75.6301 9.09867 76.3554 10.464C77.0807 11.808 77.4434 13.376 77.4434 15.168C77.4434 16.9387 77.0807 18.5173 76.3554 19.904C75.6301 21.2907 74.6274 22.368 73.3474 23.136C72.0887 23.904 70.6807 24.288 69.1234 24.288C67.6087 24.288 66.2754 23.9573 65.1234 23.296C63.9927 22.6347 63.1394 21.792 62.5634 20.768V24H59.6514V0.320007H62.5634V9.72801ZM74.4674 15.168C74.4674 13.8453 74.2007 12.6933 73.6674 11.712C73.1341 10.7307 72.4087 9.98401 71.4914 9.47201C70.5954 8.96001 69.6034 8.70401 68.5154 8.70401C67.4487 8.70401 66.4567 8.97067 65.5394 9.50401C64.6434 10.016 63.9181 10.7733 63.3634 11.776C62.8301 12.7573 62.5634 13.8987 62.5634 15.2C62.5634 16.5227 62.8301 17.6853 63.3634 18.688C63.9181 19.6693 64.6434 20.4267 65.5394 20.96C66.4567 21.472 67.4487 21.728 68.5154 21.728C69.6034 21.728 70.5954 21.472 71.4914 20.96C72.4087 20.4267 73.1341 19.6693 73.6674 18.688C74.2007 17.6853 74.4674 16.512 74.4674 15.168Z" fill="#67DAB8"/>
<path d="M88.9244 24.288C87.2817 24.288 85.7884 23.9147 84.4444 23.168C83.1217 22.4213 82.0764 21.3653 81.3084 20C80.5617 18.6133 80.1884 17.0133 80.1884 15.2C80.1884 13.408 80.5724 11.8293 81.3404 10.464C82.1297 9.07734 83.1964 8.02134 84.5404 7.29601C85.8844 6.54934 87.3884 6.17601 89.0524 6.17601C90.7164 6.17601 92.2204 6.54934 93.5644 7.29601C94.9084 8.02134 95.9644 9.06667 96.7324 10.432C97.5217 11.7973 97.9164 13.3867 97.9164 15.2C97.9164 17.0133 97.5111 18.6133 96.7004 20C95.9111 21.3653 94.8337 22.4213 93.4684 23.168C92.1031 23.9147 90.5884 24.288 88.9244 24.288ZM88.9244 21.728C89.9697 21.728 90.9511 21.4827 91.8684 20.992C92.7857 20.5013 93.5217 19.7653 94.0764 18.784C94.6524 17.8027 94.9404 16.608 94.9404 15.2C94.9404 13.792 94.6631 12.5973 94.1084 11.616C93.5537 10.6347 92.8284 9.90934 91.9324 9.44001C91.0364 8.94934 90.0657 8.70401 89.0204 8.70401C87.9537 8.70401 86.9724 8.94934 86.0764 9.44001C85.2017 9.90934 84.4977 10.6347 83.9644 11.616C83.4311 12.5973 83.1644 13.792 83.1644 15.2C83.1644 16.6293 83.4204 17.8347 83.9324 18.816C84.4657 19.7973 85.1697 20.5333 86.0444 21.024C86.9191 21.4933 87.8791 21.728 88.9244 21.728Z" fill="#67DAB8"/>
<path d="M104.657 9.31201C105.169 8.30934 105.894 7.53067 106.833 6.97601C107.793 6.42134 108.956 6.14401 110.321 6.14401V9.15201H109.553C106.289 9.15201 104.657 10.9227 104.657 14.464V24H101.745V6.46401H104.657V9.31201Z" fill="#67DAB8"/>
<path d="M122.227 6.14401C124.36 6.14401 126.088 6.79467 127.411 8.09601C128.733 9.37601 129.395 11.232 129.395 13.664V24H126.515V14.08C126.515 12.3307 126.077 10.9973 125.203 10.08C124.328 9.14134 123.133 8.67201 121.619 8.67201C120.083 8.67201 118.856 9.15201 117.939 10.112C117.043 11.072 116.595 12.4693 116.595 14.304V24H113.683V6.46401H116.595V8.96001C117.171 8.06401 117.949 7.37067 118.931 6.88001C119.933 6.38934 121.032 6.14401 122.227 6.14401Z" fill="#67DAB8"/>
</svg>
